# xmcd CD database file
#
# Track frame offsets:
#	150
#	15845
#	32167
#	49497
#	62105
#	79070
#	100257
#	119075
#	130547
#	149557
#	177445
#
# Disc length: 3424 seconds
#
# Revision: 3
# Processed by: cddbd v1.4PL0 Copyright (c) Steve Scherf et al.
# Submitted via: CDex 1.50beta10
#
DISCID=990d5e0b
DTITLE=Lowell Fulson - Blue Shadows
DYEAR=1997
DGENRE=Blues
TTITLE0=Oh! Well Oh! Well
TTITLE1=Reconsider Baby
TTITLE2=I Cried
TTITLE3=Guitar Shuffle
TTITLE4=Blue Shadows
TTITLE5=Stoop Down
TTITLE6=Sinners Prayer
TTITLE7=You're Gonna Miss Me When I'm Gone
TTITLE8=Mean Old World
TTITLE9=Do You Feel It
TTITLE10=Interview with Lowell Fulson
EXTD=YEAR: 1997
EXTT0=
EXTT1=
EXTT2=
EXTT3=
EXTT4=
EXTT5=
EXTT6=
EXTT7=
EXTT8=
EXTT9=
EXTT10=
PLAYORDER=
